HIERARCHY
ROOT Hips
{
	OFFSET 0.000000 8.830580 0.000000
	CHANNELS 6 Xposition Yposition Zposition Zrotation Yrotation Xrotation 
	JOINT Spine
	{
		OFFSET 0.000000 0.010000 0.000000
		CHANNELS 3 Zrotation Yrotation Xrotation
		JOINT Spine1
		{
			OFFSET 0.000000 2.459130 0.000000
			CHANNELS 3 Zrotation Yrotation Xrotation
			JOINT Neck
			{
				OFFSET 0.000000 2.484630 0.000000
				CHANNELS 3 Zrotation Yrotation Xrotation
				JOINT Head_virtual
				{
					OFFSET 0.000000 0.000000 0.000000
					CHANNELS 3 Zrotation Yrotation Xrotation
					JOINT Head
					{
						OFFSET 0.000000 0.927525 0.000000
						CHANNELS 3 Zrotation Yrotation Xrotation
						End Site
						{
							OFFSET 0.000000 0.000000 0.000000
						}
					}
				}
				JOINT LeftUpArm_virtual
				{
					OFFSET 0.000000 0.000000 0.000000
					CHANNELS 3 Zrotation Yrotation Xrotation
					JOINT LeftUpArm
					{
						OFFSET 1.248820 0.000000 0.000000
						CHANNELS 3 Zrotation Yrotation Xrotation
						JOINT LeftForeArm
						{
							OFFSET 2.597580 0.000000 0.000000
							CHANNELS 3 Zrotation Yrotation Xrotation
							JOINT LeftHand
							{
								OFFSET 2.455420 0.000000 0.000000
								CHANNELS 3 Zrotation Yrotation Xrotation
								End Site
								{
									OFFSET 0.000000 0.000000 0.000000
								}
							}
						}
					}
				}
				JOINT RightUpArm_virtual
				{
					OFFSET -0.000000 -0.000000 -0.000000
					CHANNELS 3 Zrotation Yrotation Xrotation
					JOINT RightUpArm
					{
						OFFSET -1.248820 -0.000000 -0.000000
						CHANNELS 3 Zrotation Yrotation Xrotation
						JOINT RightForeArm
						{
							OFFSET -2.597580 -0.000000 -0.000000
							CHANNELS 3 Zrotation Yrotation Xrotation
							JOINT RightHand
							{
								OFFSET -2.455420 -0.000000 -0.000000
								CHANNELS 3 Zrotation Yrotation Xrotation
								End Site
								{
									OFFSET 0.000000 0.000000 0.000000
								}
							}
						}
					}
				}
			}
		}
	}
	JOINT LeftUpLeg
	{
		OFFSET 1.271939 0.000000 0.000000
		CHANNELS 3 Zrotation Yrotation Xrotation
		JOINT LeftLowLeg
		{
			OFFSET 0.000000 -4.342910 0.000000
			CHANNELS 3 Zrotation Yrotation Xrotation
			JOINT LeftFoot
			{
				OFFSET 0.000000 -4.487670 0.000000
				CHANNELS 3 Zrotation Yrotation Xrotation
				JOINT LeftToeBase
				{
					OFFSET 0.000000 0.000000 1.515070
					CHANNELS 3 Zrotation Yrotation Xrotation
					End Site
					{
						OFFSET 0.000000 0.000000 0.000000
					}
				}
			}
		}
	}
	JOINT RightUpLeg
	{
		OFFSET -1.271939 0.000000 0.000000
		CHANNELS 3 Zrotation Yrotation Xrotation
		JOINT RightLowLeg
		{
			OFFSET 0.000000 -4.342910 0.000000
			CHANNELS 3 Zrotation Yrotation Xrotation
			JOINT RightFoot
			{
				OFFSET 0.000000 -4.487670 0.000000
				CHANNELS 3 Zrotation Yrotation Xrotation
				JOINT RightToeBase
				{
					OFFSET 0.000000 0.000000 1.515070
					CHANNELS 3 Zrotation Yrotation Xrotation
					End Site
					{
						OFFSET 0.000000 0.000000 0.000000
					}
				}
			}
		}
	}
}
MOTION
Frames: 11
Frame Time: 0.041667
-15.317736 4.810181 37.509485 172.507990 -19.726196 -175.771586 5.022502 -0.804421 -22.602351 -0.825624 -3.411219 6.092586 0.000000 0.000000 0.000000 -14.341662 8.400283 28.794971 -23.692249 -25.479899 -66.441015 -19.495300 0.495671 4.247010 42.257301 -37.452702 -32.967010 -180.000000 -76.667999 180.000000 36.737499 -43.733898 28.367901 25.498600 -0.532799 9.257360 46.964100 37.858002 33.028015 -180.000000 68.014000 -180.000000 -71.577797 21.482500 27.789301 -3.109127 -15.750826 -70.238889 0.000000 0.000000 124.040001 -4.159274 -8.110490 -25.701304 0.000000 0.000000 -26.790800 0.506768 -9.595459 -9.839563 0.000000 0.000000 113.612999 7.157361 15.843952 -17.057718 0.000000 0.000000 -58.317101 
-15.312595 4.807704 37.488564 172.596299 -19.690129 -175.841754 5.121579 -0.911618 -23.288722 -0.630397 -3.526805 5.922025 0.000000 0.000000 0.000000 -14.468806 8.435577 29.177989 -23.906684 -25.362359 -66.073589 -19.448299 0.434948 4.100340 41.249100 -37.174400 -32.454010 -180.000000 -75.413002 180.000000 36.407299 -43.917099 28.739901 25.688101 -0.857071 9.273920 46.560902 37.449001 33.737000 -180.000000 66.744003 180.000000 -71.825600 21.884399 28.716700 -3.028410 -15.578448 -69.958188 0.000000 0.000000 124.144997 -4.083814 -8.086579 -26.007329 0.000000 0.000000 -26.807100 0.702477 -9.612179 -9.453747 0.000000 0.000000 113.197998 6.727198 15.465369 -17.356265 0.000000 0.000000 -58.841999 
-15.306851 4.805127 37.469294 172.616216 -19.638419 -176.009994 5.141407 -1.029861 -23.764476 -0.474335 -3.600394 5.773253 0.000000 0.000000 0.000000 -14.525395 8.508818 29.443314 -24.076338 -25.262027 -65.976705 -19.589500 0.304925 4.064860 40.837502 -36.648201 -32.160004 -180.000000 -74.367996 180.000000 37.498600 -44.048302 27.884399 25.776300 -1.332600 9.213240 46.442299 37.380402 34.984009 -180.000000 65.748001 -180.000000 -74.025398 23.651400 34.816700 -2.997711 -15.394216 -69.596994 0.000000 0.000000 124.235001 -4.007562 -8.154581 -26.224318 0.000000 0.000000 -26.883700 0.837244 -9.566689 -8.896782 0.000000 0.000000 112.777000 6.431378 15.262986 -17.822363 0.000000 0.000000 -59.106701 
-15.300109 4.804275 37.452485 172.699458 -19.489723 -176.165976 5.226435 -1.049022 -24.186013 -0.307851 -3.650740 5.517972 0.000000 0.000000 0.000000 -14.588017 8.564069 29.757357 -24.112737 -25.227169 -65.918162 -19.711700 0.172292 4.192900 40.375401 -36.076199 -32.045990 180.000000 -73.456001 -180.000000 37.487801 -44.142300 27.262899 25.899401 -1.540340 9.178560 46.085701 36.967701 35.505005 -180.000000 64.628998 180.000000 -74.319000 23.972200 33.988098 -2.863514 -15.135344 -69.360725 0.000000 0.000000 124.362999 -3.982779 -8.336626 -26.266295 0.000000 0.000000 -27.023000 0.989126 -9.424934 -8.552802 0.000000 0.000000 112.523003 6.560291 15.417586 -17.882435 0.000000 0.000000 -59.174999 
-15.294166 4.802712 37.437567 172.795980 -19.266175 -176.340360 5.250610 -0.980609 -24.498125 -0.020721 -3.568694 5.255470 0.000000 0.000000 0.000000 -14.588811 8.533356 29.911384 -24.134733 -25.173331 -65.851500 -19.778299 0.002652 4.198430 39.869400 -35.741699 -31.936005 180.000000 -72.740997 -180.000000 37.362202 -44.414299 26.886600 25.922800 -1.849010 9.155050 45.737999 36.607899 35.649994 -180.000000 63.583000 180.000000 -74.261299 24.039200 33.344398 -2.715827 -14.829423 -69.216799 0.000000 0.000000 124.571999 -3.898658 -8.445582 -26.088641 0.000000 0.000000 -27.392500 1.150570 -9.231536 -8.319644 0.000000 0.000000 112.412003 6.550857 15.336821 -17.852689 0.000000 0.000000 -59.185799 
-15.288619 4.801579 37.423191 172.880015 -19.037091 -176.659393 5.295007 -0.952429 -24.716244 0.204324 -3.552379 5.192645 0.000000 0.000000 0.000000 -14.665402 8.791028 29.964726 -23.988429 -25.159877 -65.930502 -19.818399 -0.067834 4.136730 39.514599 -35.375198 -31.898010 180.000000 -72.245003 -180.000000 37.576801 -44.615101 26.581400 25.900801 -1.936770 9.177640 45.411598 36.246799 35.552002 180.000000 62.656998 180.000000 -74.237198 24.430000 32.702499 -2.613488 -14.524404 -68.932104 0.000000 0.000000 124.775002 -3.876471 -8.615874 -25.856345 0.000000 0.000000 -27.819600 1.282462 -9.077857 -7.974874 0.000000 0.000000 112.335999 6.417528 15.015254 -17.822333 0.000000 0.000000 -59.146599 
-15.283708 4.801053 37.408756 172.965772 -18.881231 -177.023965 5.437099 -0.911522 -24.948073 0.206685 -3.630522 5.233682 0.000000 0.000000 0.000000 -14.718308 8.938849 29.765300 -24.046421 -25.103889 -65.818578 -19.709101 -0.075102 3.962030 39.082199 -35.122501 -31.721008 180.000000 -72.024002 -180.000000 37.569199 -44.474602 25.910101 26.056499 -1.842180 9.354280 44.854401 35.880600 35.011993 -180.000000 61.916000 180.000000 -74.042900 25.515499 33.018200 -2.531823 -14.307242 -68.611424 0.000000 0.000000 124.971001 -3.931906 -8.788516 -25.592366 0.000000 0.000000 -28.232300 1.401877 -9.023590 -7.541548 0.000000 0.000000 112.209999 6.297235 14.664130 -17.798464 0.000000 0.000000 -59.302299 
-15.279515 4.800418 37.395095 173.004314 -18.747901 -177.332142 5.546639 -0.886180 -25.200426 0.214696 -3.690267 5.280350 0.000000 0.000000 0.000000 -14.767755 9.023776 29.485063 -24.205168 -25.053086 -65.627840 -19.595301 -0.012213 3.877460 38.771900 -34.928398 -31.683990 -180.000000 -72.072998 180.000000 37.430901 -43.941601 25.519800 26.109800 -1.765350 9.444920 44.537201 35.582600 34.583008 180.000000 61.348999 180.000000 -74.237198 26.246700 33.485401 -2.474734 -14.146105 -68.353056 0.000000 0.000000 125.160004 -3.934154 -8.901669 -25.283128 0.000000 0.000000 -28.675600 1.480981 -9.038968 -7.118114 0.000000 0.000000 112.093002 6.113834 14.149942 -17.927734 0.000000 0.000000 -59.254002 
-15.275311 4.799921 37.382519 172.982912 -18.611832 -177.631533 5.595357 -0.872163 -25.344044 0.291753 -3.706459 5.196028 0.000000 0.000000 0.000000 -14.842365 9.103988 29.396106 -24.335346 -25.068632 -65.513880 -19.715401 0.007841 3.912880 38.870998 -34.508598 -31.562012 -180.000000 -72.425003 180.000000 38.257401 -43.795700 24.855801 26.163700 -1.709080 9.493410 44.311901 35.314098 34.268005 180.000000 60.917999 180.000000 -74.540703 26.477699 33.939301 -2.436510 -14.015445 -68.084428 0.000000 0.000000 125.322998 -4.032704 -9.173447 -24.963571 0.000000 0.000000 -29.066900 1.497011 -9.083507 -6.703951 0.000000 0.000000 112.018997 6.009281 13.680563 -17.995337 0.000000 0.000000 -59.189301 
-15.272414 4.799553 37.369704 172.966517 -18.455364 -177.847804 5.657306 -0.818571 -25.569398 0.413420 -3.692038 5.255318 0.000000 0.000000 0.000000 -15.063344 9.475708 29.240783 -24.260217 -25.253944 -65.522601 -19.750900 0.132011 3.815440 38.769699 -34.386200 -31.593994 180.000000 -72.828003 -180.000000 38.294998 -44.155601 24.926701 25.917900 -1.353820 8.294970 45.040199 33.763199 34.752991 -180.000000 60.404999 -180.000000 -74.053802 26.808100 34.483101 -2.381187 -13.898413 -67.898829 0.000000 0.000000 125.487999 -4.161430 -9.451543 -24.638837 0.000000 0.000000 -29.440600 1.524178 -9.139911 -6.386538 0.000000 0.000000 111.931999 6.161508 13.240354 -17.950638 0.000000 0.000000 -59.387600 
-15.270538 4.802218 37.355647 173.037135 -18.284527 -178.069528 5.824745 -0.704523 -25.829497 0.444293 -3.730072 5.174151 0.000000 0.000000 0.000000 -15.177219 9.642305 29.310579 -24.287219 -25.309163 -65.501938 -19.814400 0.137899 3.773100 38.636700 -34.195000 -31.278992 180.000000 -73.318001 -180.000000 38.533199 -44.517899 25.894699 26.021900 -1.442500 8.210370 44.890900 33.538601 34.737000 180.000000 60.335999 180.000000 -74.380699 26.609100 34.636799 -2.230458 -13.785057 -67.685855 0.000000 0.000000 125.625999 -4.274040 -9.769991 -24.375865 0.000000 0.000000 -29.774300 1.570965 -9.191366 -6.169537 0.000000 0.000000 111.842003 6.222798 12.834284 -17.547169 0.000000 0.000000 -60.174400 
